<svg width="51" height="50" viewBox="0 0 51 50" fill="none" xmlns="http://www.w3.org/2000/svg">
<g clip-path="url(#clip0_105_2262)">
<path d="M25.5 50C39.5833 50 51 38.8071 51 25C51 11.1929 39.5833 0 25.5 0C11.4167 0 0 11.1929 0 25C0 38.8071 11.4167 50 25.5 50Z" fill="#F0F0F0"/>
<path d="M51.0002 25C51.0002 11.193 39.5834 0 25.5002 0C20.5118 0 15.8587 1.40576 11.9283 3.83311L17.5176 6.16133L9.97852 9.30176L17.5176 12.4421L9.97852 15.5823L17.5176 18.7225L9.97852 21.8622L17.5176 25.0018L9.97852 28.142L17.5176 31.282L9.97852 34.4218L17.5176 37.5618L9.97852 40.7021L17.5176 43.8418L11.9308 46.1688C15.8606 48.5949 20.5128 50 25.5002 50C39.5834 50 51.0002 38.807 51.0002 25Z" fill="#751A46"/>
</g>
<defs>
<clipPath id="clip0_105_2262">
<rect width="51" height="50" fill="white"/>
</clipPath>
</defs>
</svg>
