<svg width="51" height="50" viewBox="0 0 51 50" fill="none" xmlns="http://www.w3.org/2000/svg">
<path d="M0 25C0 11.193 11.4168 0 25.5 0C39.5832 0 51 11.193 51 25L25.5 27.1739L0 25Z" fill="#FFDA44"/>
<path d="M3.41211 37.5C7.82132 44.9722 16.0614 50 25.4999 50C34.9384 50 43.1785 44.9722 47.5877 37.5L25.4999 35.8695L3.41211 37.5Z" fill="#D80027"/>
<path d="M47.5878 37.5C49.7575 33.8229 51 29.5538 51 25H0C0 29.5538 1.24253 33.8229 3.41222 37.5H47.5878Z" fill="#0052B4"/>
<path d="M25.4999 33.6957C30.3984 33.6957 34.3694 29.8025 34.3694 25C34.3694 20.1976 30.3984 16.3044 25.4999 16.3044C20.6014 16.3044 16.6304 20.1976 16.6304 25C16.6304 29.8025 20.6014 33.6957 25.4999 33.6957Z" fill="#FFDA44"/>
<path d="M25.5 30.4348C22.4433 30.4348 19.9565 27.9967 19.9565 25V21.7392C19.9565 18.7424 22.4434 16.3044 25.5 16.3044C28.5566 16.3044 31.0435 18.7425 31.0435 21.7392V25C31.0435 27.9968 28.5567 30.4348 25.5 30.4348Z" fill="#338AF3"/>
<path d="M34.3696 11.9565H27.7174C27.7174 10.7559 26.7246 9.78259 25.5 9.78259C24.2754 9.78259 23.2826 10.7559 23.2826 11.9565H16.6304C16.6304 13.1572 17.6971 14.1304 18.9216 14.1304H18.8478C18.8478 15.3311 19.8405 16.3044 21.0652 16.3044C21.0652 17.5051 22.0579 18.4783 23.2826 18.4783H27.7174C28.9421 18.4783 29.9348 17.5051 29.9348 16.3044C31.1595 16.3044 32.1522 15.3311 32.1522 14.1304H32.0784C33.303 14.1304 34.3696 13.1571 34.3696 11.9565V11.9565Z" fill="black"/>
</svg>
